<!-- icon666.com - MILLIONS vector ICONS FREE --><svg id="Layer_1" viewBox="0 0 512 512" xmlns="http://www.w3.org/2000/svg" data-name="Layer 1"><path d="m59.009 253.321a6 6 0 0 0 -6 6v174.221a6 6 0 0 0 12 0v-174.221a6 6 0 0 0 -6-6z"></path><path d="m85.061 253.321a6 6 0 0 0 -6 6v174.221a6 6 0 0 0 12 0v-174.221a6 6 0 0 0 -6-6z"></path><path d="m110.3 253.321a6 6 0 0 0 -6 6v174.221a6 6 0 0 0 12 0v-174.221a6 6 0 0 0 -6-6z"></path><path d="m136.35 253.321a6 6 0 0 0 -6 6v174.221a6 6 0 0 0 12 0v-174.221a6 6 0 0 0 -6-6z"></path><path d="m199.957 186.728a6 6 0 0 0 6-6v-7.028a6 6 0 1 0 -12 0v7.03a6 6 0 0 0 6 5.998z"></path><path d="m199.957 295.1a6 6 0 0 0 6-6v-82.3a6 6 0 0 0 -12 0v82.3a6 6 0 0 0 6 6z"></path><path d="m16 490.763h480a6 6 0 0 0 6-6v-31.055a6 6 0 0 0 -6-6h-14.1v-158.6a6 6 0 0 0 -6-6h-10.1v-19.923a6 6 0 0 0 -6-6h-32.937v-12.685a6 6 0 1 0 -12 0v12.681h-28.693a6 6 0 0 0 -6 6v19.926h-4.833l.126-133.216a6.015 6.015 0 0 0 -3.693-5.551 6.245 6.245 0 0 0 -2.446-.455h-23.4v-116.648a6 6 0 0 0 -6-6h-130.247a6 6 0 0 0 -6 6v46.225a6 6 0 1 0 12 0v-40.225h17.08v110.652h-17.08v-20.427a6 6 0 0 0 -12 0v20.427h-23.4a6.243 6.243 0 0 0 -2.445.455 6.013 6.013 0 0 0 -3.693 5.551l.161 170.835h-8.315v-87.588a6 6 0 0 0 -6-6h-123.885a6 6 0 0 0 -6 6v214.566h-14.1a6 6 0 0 0 -6 6v31.055a6 6 0 0 0 6 6zm376.17-221.578h61.63v13.926h-61.63zm-16.844 25.926h94.574v21.989h-94.595zm22.76 117.589v-19.864h71.814v19.864zm71.814 12v23.005h-71.814v-23.005zm-71.814-43.867v-13.679h.707a6 6 0 0 0 6-6v-.185h65.107v19.867zm6.707-31.867v-19.866h65.107v19.867zm-41.336-193.08-.157 164.844h-31.342v-164.841zm-46.617-122.649h17.08v110.652h-17.08zm3.118 122.652v164.841h-21.273v-164.841zm-39.158-122.652h24.04v110.652h-24.04zm5.886 122.652v164.841h-23.786v-164.841zm-41.929-122.652h24.043v110.652h-24.043zm-15.128 122.652h21.271v164.841h-21.271zm-12 0v164.841h-31.329l-.155-164.841zm-60.829 176.841h235.993v22.424h-235.993zm214.9 59.45h-38.43a6 6 0 0 0 -6 6v49.528h-7.841v-80.554h66.659v80.554h-8.388v-49.528a6 6 0 0 0 -6-6zm-6 12v43.528h-26.43v-43.528zm-71.434-11.371h-39.55a6 6 0 0 0 -6 6v48.9h-8.043v-80.555h66.756v80.554h-7.163v-48.9a6 6 0 0 0 -6.002-5.999zm-6 12v42.9h-27.55v-42.9zm-72.554-12h-38.434a6 6 0 0 0 -6 6v48.9h-7.766v-80.555h65.159v80.554h-6.961v-48.9a6 6 0 0 0 -6-5.999zm-6 12v42.9h-26.434v-42.9zm-167.612-165.667h111.881v81.588h-3.181a6 6 0 0 0 -6 6v34.424a6 6 0 0 0 6 6h.708v80.554h-109.408zm-20.1 220.566h468v19.055h-468z"></path></svg>