<!-- icon666.com - MILLIONS vector ICONS FREE --><svg version="1.1" id="Capa_1" xmlns="http://www.w3.org/2000/svg" xmlns:xlink="http://www.w3.org/1999/xlink" x="0px" y="0px" viewBox="0 0 512 512" style="enable-background:new 0 0 512 512;" xml:space="preserve"><g><g><circle style="fill: rgb(50, 102, 129);" cx="256" cy="256" r="256" fill="#8DD9FF"></circle></g><g><rect x="56" y="206.47" style="" width="22.477" height="45.53" fill="#FFFFFF"></rect></g><g><rect x="455.333" y="222.75" style="" width="27.667" height="37.25" fill="#B2B9C9"></rect></g><g><path style="" d="M464,296h44.869c2.046-13.036,3.131-26.39,3.131-40c0-4.024-0.119-8.021-0.303-12H464V296z" fill="#9FC3DD"></path></g><g><path style="fill: rgb(145, 48, 48);" d="M0.099,253.102C0.085,254.073,0,255.025,0,256c0,13.61,1.085,26.964,3.131,40H49v-42.898H0.099z" fill="#B39191"></path></g><g><polyline style="" points="72,296 120,296 112,208 72,224 72,296 " fill="#B2B9C9"></polyline></g><g><rect x="308.75" y="216" style="" width="46.5" height="80" fill="#7FAAB8"></rect></g><g><rect x="112" y="176" style="" width="32" height="120" fill="#EEE1C2"></rect></g><g><rect x="288" y="192" style="" width="32" height="104" fill="#EEE1C2"></rect></g><g><rect x="216" y="172.002" style="" width="32" height="123.998" fill="#9FC3DD"></rect></g><g><rect x="367" y="224" style="" width="46.5" height="72" fill="#B2B9C9"></rect></g><g><rect x="417.5" y="236" style="fill: rgb(145, 48, 48);" width="46.5" height="60" fill="#B39191"></rect></g><g><path style="" d="M3.131,296C22.337,418.382,128.225,512,256,512c127.775,0,233.662-93.618,252.869-216H3.131z" fill="#43AB5F"></path></g><g><path style="" d="M472.877,392c18.018-28.677,30.525-61.167,35.992-96H3.131c5.467,34.833,17.975,67.323,35.992,96 H472.877z" fill="#71BE63"></path></g><g><path style="" d="M15.615,344h480.77c5.633-15.37,9.881-31.408,12.484-48H3.131 C5.735,312.592,9.982,328.63,15.615,344z" fill="#94D75B"></path></g><g><path style="" d="M6.249,312h499.503c1.187-5.28,2.27-10.599,3.117-16H3.131C3.979,301.401,5.062,306.72,6.249,312z" fill="#B0EB81"></path></g><g><path style="" d="M374.039,483.156C329.813,413.034,256,296,256,296L137.962,483.155 C173.287,501.553,213.414,512,256,512S338.714,501.554,374.039,483.156z" fill="#674447"></path></g><g><path style="fill: rgb(122, 51, 31);" d="M286.273,344C268.497,315.814,256,296,256,296l-30.273,48H286.273z" fill="#8C665B"></path></g><g><polyline style="" points="288,296 288,148 248,124 248,296 " fill="#FDEFDB"></polyline></g><g><polygon style="" points="176,96 176,296 216,296 216,117 216,68 " fill="#FFFFFF"></polygon></g><g><rect x="344" y="130" style="" width="32" height="166" fill="#FFFFFF"></rect></g><g><polyline style="" points="144,296 144,256 96,256 96,296 " fill="#A29B91"></polyline></g><g><polyline style="" points="190,296 190,200 144,200 144,296 " fill="#9FC3DD"></polyline></g><g><polyline style="" points="320,296 320,264 272,272 272,296 " fill="#88B7C6"></polyline></g><g><rect x="400" y="216" style="" width="32" height="80" fill="#FDEFDB"></rect></g><g><path style="" d="M256,296l105.829,193.099c4.129-1.878,8.201-3.855,12.21-5.943L256,296z" fill="#FFFFFF"></path></g><g><path style="" d="M256,296L137.962,483.155c4.008,2.088,8.08,4.066,12.209,5.944L256,296z" fill="#FFFFFF"></path></g><g><path style="" d="M278.182,510.932L256,296l7.423,215.773C268.38,511.631,273.3,511.354,278.182,510.932z" fill="#E9B668"></path></g><g><path style="" d="M256,296l-22.182,214.932c4.882,0.421,9.802,0.699,14.759,0.841L256,296z" fill="#E9B668"></path></g><g><rect x="40" y="240" style="" width="32" height="56" fill="#9FC3DD"></rect></g><g><rect x="329.5" y="274.25" style="" width="53.5" height="21.75" fill="#A29B91"></rect></g><g><rect x="216" y="218.5" style="fill: rgb(145, 48, 48);" width="17.818" height="77.5" fill="#B39191"></rect></g><g><rect x="120" y="280" style="" width="45.667" height="16" fill="#9E8282"></rect></g><g><rect x="82.333" y="280" style="" width="21.406" height="16" fill="#EEE1C2"></rect></g><g><rect x="224.969" y="280" style="" width="17.698" height="16" fill="#EEE1C2"></rect></g><g><rect x="376" y="280" style="" width="28.5" height="16" fill="#EEE1C2"></rect></g><g><rect x="286.273" y="284.396" style="" width="22.477" height="11.604" fill="#9E8282"></rect></g><g><rect x="393.523" y="270" style="" width="22.477" height="26" fill="#9E8282"></rect></g><g><rect x="452.762" y="276.333" style="" width="46.905" height="19.667" fill="#9E8282"></rect></g><g><rect x="28.762" y="270" style="" width="22.477" height="26" fill="#9E8282"></rect></g><g><rect x="180" y="270" style="" width="16.981" height="26" fill="#B2B9C9"></rect></g><g><rect x="346.76" y="284.396" style="" width="16.981" height="11.604" fill="#B2B9C9"></rect></g><g><rect x="23.019" y="284.396" style="" width="16.981" height="11.604" fill="#B2B9C9"></rect></g><g><rect x="98.352" y="288" style="" width="32.633" height="8" fill="#B2B9C9"></rect></g></g></svg>